<?xml version="1.0" encoding="utf-8"?>
<!-- Generator: Adobe Illustrator 16.0.0, SVG Export Plug-In . SVG Version: 6.00 Build 0)  -->
<!DOCTYPE svg PUBLIC "-//W3C//DTD SVG 1.1//EN" "http://www.w3.org/Graphics/SVG/1.1/DTD/svg11.dtd">
<svg version="1.1" id="svg2" xmlns:svg="http://www.w3.org/2000/svg"
	 xmlns="http://www.w3.org/2000/svg" xmlns:xlink="http://www.w3.org/1999/xlink" x="0px" y="0px" width="1094.775px"
	 height="388.665px" viewBox="0 0 1094.775 388.665" enable-background="new 0 0 1094.775 388.665" xml:space="preserve">
<g id="g2337" transform="matrix(3.1826893,0,0,3.1826893,-856.12546,-2701.34)">
	<rect id="rect2339" x="268.994" y="848.76" fill="#FFFFFF" width="343.978" height="122.118"/>
	<g id="g2341" transform="translate(-338.28062,424.3829)">
		
			<linearGradient id="path2345_1_" gradientUnits="userSpaceOnUse" x1="727.9784" y1="351.7468" x2="966.7607" y2="351.7468" gradientTransform="matrix(0.9995 0 0 -0.9995 -105.7578 837.0069)">
			<stop  offset="0" style="stop-color:#DA251D"/>
			<stop  offset="0.502" style="stop-color:#89211B"/>
		</linearGradient>
		<path id="path2345" fill="url(#path2345_1_)" d="M607.275,524.832h82.809l21.342,21.664v-69.529h-104.15V524.832L607.275,524.832z
			 M661.403,439.324c-1.224,0-2.217,0.993-2.217,2.218v13.228c0,0.009,0.002,0.017,0.002,0.026c0.014,4.996,4.081,9.056,9.081,9.056
			c5.009,0,9.085-4.074,9.085-9.082c0-5.01-4.076-9.083-9.085-9.083c-1.7,0-3.287,0.478-4.648,1.293v-5.438
			C663.622,440.317,662.63,439.324,661.403,439.324L661.403,439.324z M668.27,450.122c2.564,0,4.646,2.085,4.646,4.647
			c0,2.563-2.083,4.646-4.646,4.646c-2.561,0-4.648-2.083-4.648-4.646C663.622,452.208,665.709,450.122,668.27,450.122
			L668.27,450.122z M681.917,445.703c-1.227,0-2.218,0.994-2.218,2.218v7.583c0,2.689,0.378,6.454,3.646,8.1
			c1.094,0.55,2.428,0.108,2.979-0.985c0.549-1.096,0.108-2.428-0.986-2.978c-0.297-0.149-1.204-0.608-1.204-4.136v-7.583
			C684.134,446.697,683.143,445.703,681.917,445.703L681.917,445.703z M681.918,439.333c-1.349,0-2.441,1.092-2.441,2.441
			c0,1.347,1.091,2.438,2.441,2.438c1.346,0,2.44-1.091,2.44-2.438C684.358,440.425,683.264,439.333,681.918,439.333z
			 M693.355,467.442v-4.895c1.361,0.816,2.948,1.293,4.647,1.293c5.008,0,9.082-4.073,9.082-9.083c0-5.008-4.074-9.082-9.082-9.082
			s-9.084,4.074-9.084,9.082v12.684c0,1.226,0.993,2.217,2.218,2.217C692.362,469.659,693.355,468.667,693.355,467.442
			L693.355,467.442z M698.002,450.111c2.561,0,4.646,2.084,4.646,4.646c0,2.562-2.086,4.646-4.646,4.646
			c-2.564,0-4.647-2.084-4.647-4.646C693.355,452.195,695.438,450.111,698.002,450.111L698.002,450.111z M607.275,424.377v4.521
			h104.15v-4.521H607.275z"/>
		<g id="g2347">
			<g>
				<path id="path2349" d="M723.37,449.026c-3.734,0-5.04-2.289-5.04-5.668v-13.436h2.451v7.604h0.056
					c0.599-1.335,1.935-2.072,3.379-2.072c3.788,0,4.414,3.952,4.414,6.922C728.63,445.974,727.404,449.026,723.37,449.026
					L723.37,449.026z M723.534,437.362c-2.071,0-2.753,3.243-2.753,4.851c0,1.772-0.054,4.906,2.453,4.906
					c2.397,0,2.671-3.053,2.671-4.824C725.906,440.769,725.689,437.362,723.534,437.362L723.534,437.362z"/>
				<path id="path2351" d="M732.009,432.702v-2.78h2.942v2.78H732.009z M732.255,448.727v-12.973h2.453v12.973H732.255z"/>
				<path id="path2353" d="M746.834,448.727v-2.78h-0.054c-0.654,1.826-2.073,3.079-4.115,3.079c-2.617,0-3.489-2.017-3.489-4.279
					v-8.994h2.454v7.086c0,0.544,0,1.063,0.025,1.608c0.082,1.226,0.355,2.126,1.746,2.126c2.397,0,3.433-3.407,3.433-5.314v-5.506
					h2.453v12.973L746.834,448.727L746.834,448.727z"/>
				<polygon id="polygon2355" points="754.003,448.727 754.003,429.922 756.457,429.922 756.457,448.727 				"/>
				<path id="path2357" d="M762.586,441.286c0,2.916,1.5,5.833,4.769,5.833c0.874,0,1.664-0.164,2.453-0.463v1.935
					c-1.091,0.245-2.126,0.435-3.243,0.435c-4.634,0-6.431-3.161-6.431-7.413c0-3.543,1.554-6.159,5.286-6.159
					c3.162,0,4.687,2.235,4.687,5.205v0.627L762.586,441.286L762.586,441.286z M767.657,439.651c0-1.389-1.01-2.289-2.372-2.289
					c-1.063,0-1.963,0.517-2.398,1.499c-0.11,0.245-0.192,0.545-0.192,0.79H767.657L767.657,439.651z"/>
				<path id="path2359" d="M776.948,437.662v6.922c0,1.445,0.355,2.535,2.073,2.535c0.435,0,0.897-0.055,1.306-0.191v1.908
					c-0.626,0.136-1.281,0.19-1.935,0.19c-2.288,0-3.895-0.681-3.895-3.161v-8.203h-2.318v-1.908h2.318v-3.051l2.451-1.527v4.578
					h3.599v1.908L776.948,437.662L776.948,437.662z"/>
				<polygon id="polygon2361" points="786.867,454.313 784.47,454.313 786.294,448.808 781.362,435.754 784.086,435.754 
					787.494,445.129 787.549,445.129 790.602,435.754 793.326,435.754 				"/>
				<path id="path2363" d="M803.327,448.727v-7.086c0-0.517,0-1.062-0.025-1.608c-0.082-1.198-0.355-2.125-1.746-2.125
					c-2.398,0-3.433,3.406-3.433,5.315v5.505h-2.454v-12.973h2.454v2.78h0.053c0.736-1.854,2.073-3.08,4.115-3.08
					c2.589,0,3.489,2.017,3.489,4.279v8.994H803.327L803.327,448.727z"/>
			</g>
			<g>
				<path id="path2365" d="M718.33,460.748v-2.78h2.942v2.78H718.33z M718.576,476.772V463.8h2.453v12.972H718.576z"/>
				<path id="path2367" d="M733.29,476.773v-7.086c0-0.517,0-1.062-0.026-1.608c-0.082-1.199-0.355-2.125-1.745-2.125
					c-2.398,0-3.433,3.406-3.433,5.314v5.504h-2.454V463.8h2.454v2.78h0.054c0.736-1.854,2.073-3.08,4.115-3.08
					c2.589,0,3.489,2.017,3.489,4.279v8.993L733.29,476.773L733.29,476.773z"/>
				<path id="path2369" d="M748.633,459.958c-0.843-0.246-1.689-0.382-2.587-0.382c-1.746,0-2.535,1.281-2.535,2.889v1.335h3.87
					v1.908h-3.87v11.064h-2.453v-11.064h-2.344V463.8h2.344v-1.499c0-3.244,1.853-4.633,4.961-4.633
					c0.872,0,1.772,0.054,2.615,0.245V459.958L748.633,459.958z"/>
				<path id="path2371" d="M754.739,477.072c-4.169,0-5.751-2.97-5.751-6.786c0-3.788,1.582-6.786,5.751-6.786
					c4.143,0,5.722,2.998,5.722,6.786C760.462,474.075,758.882,477.072,754.739,477.072z M754.739,465.408
					c-2.699,0-3.024,2.779-3.024,4.878c0,2.072,0.324,4.879,3.024,4.879c2.671,0,2.998-2.835,2.998-4.879
					C757.737,468.242,757.438,465.408,754.739,465.408z"/>
				<path id="path2373" d="M770.328,466.171c-3.133,0-4.061,2.262-4.061,5.097v5.504h-2.451V463.8h2.451v2.616h0.056
					c0.626-1.826,2.07-2.916,4.005-2.916V466.171L770.328,466.171z"/>
				<path id="path2375" d="M787.414,476.773v-7.086c0-0.463,0-0.981-0.025-1.499c-0.082-1.253-0.273-2.234-1.771-2.234
					c-1.909,0-2.862,3.134-2.862,4.606v6.213h-2.453v-7.086c0-0.463,0-0.981-0.026-1.499c-0.082-1.199-0.22-2.234-1.689-2.234
					c-2.155,0-2.945,3.706-2.945,5.314v5.505h-2.454V463.8h2.454v2.589h0.054c0.573-1.635,1.746-2.889,3.627-2.889
					c1.771,0,3.052,0.982,3.297,2.753h0.054c0.654-1.608,1.907-2.753,3.678-2.753c2.617,0,3.517,2.017,3.517,4.279v8.993H787.414
					L787.414,476.773z"/>
				<path id="path2377" d="M800.36,476.773v-1.607h-0.056c-0.573,1.226-2.017,1.907-3.351,1.907c-2.18,0-3.681-1.253-3.681-3.488
					c0-3.652,4.279-4.252,7.088-4.252v-2.262c0-0.136-0.082-0.3-0.11-0.436c-0.299-0.872-1.01-1.226-1.882-1.226
					c-1.28,0-2.07,0.709-2.07,1.989h-2.589c0-2.889,2.262-3.897,4.851-3.897c2.835,0,4.251,1.39,4.251,4.17v9.102H800.36
					L800.36,476.773z M800.36,470.967h-0.491c-1.528,0-3.872,0.682-3.872,2.535c0,0.79,0.519,1.663,1.419,1.663
					c1.69,0,2.945-1.936,2.945-3.461V470.967L800.36,470.967z"/>
				<path id="path2379" d="M813.413,468.024c0-1.335-0.381-2.616-1.988-2.616c-2.073,0-2.646,2.316-2.646,3.951
					c0,3.27,1.607,5.805,5.153,5.805c0.733,0,1.388-0.055,2.071-0.273v1.689c-1.173,0.355-2.372,0.491-3.599,0.491
					c-4.36,0-6.349-3.242-6.349-7.249c0-3.597,1.636-6.323,5.534-6.323c2.942,0,4.631,1.581,4.631,4.524H813.413L813.413,468.024z"
					/>
				<path id="path2381" d="M821.807,477.89c0,3.488-2.646,4.714-5.751,4.714c-0.245,0-0.462-0.027-0.708-0.054v-1.935
					c0.327,0.055,0.654,0.082,0.979,0.082c2.727,0,3.026-1.554,3.026-3.843V463.8h2.454V477.89L821.807,477.89z M819.108,460.748
					v-2.78h2.944v2.78H819.108z"/>
				<path id="path2383" d="M826.248,460.748v-2.78h2.944v2.78H826.248z M826.493,476.772V463.8h2.454v12.972H826.493z"/>
			</g>
			<g>
				<path id="path2385" d="M724.298,505.036c-1.472,0-2.862-0.654-3.461-2.071h-0.056v7.603h-2.451v-18.804h2.451v1.962h0.056
					c0.572-1.39,2.124-2.262,3.596-2.262c3.571,0,4.442,3.652,4.442,6.568C728.876,500.975,728.004,505.036,724.298,505.036
					L724.298,505.036z M723.562,493.372c-2.208,0-2.781,3.243-2.781,4.906c0,1.825,0.409,4.851,2.835,4.851
					c2.318,0,2.535-3.189,2.535-4.879C726.151,496.506,725.96,493.372,723.562,493.372L723.562,493.372z"/>
				<path id="path2387" d="M739.749,504.736v-2.78h-0.056c-0.654,1.826-2.07,3.079-4.115,3.079c-2.615,0-3.489-2.017-3.489-4.279
					v-8.993h2.453v7.086c0,0.544,0,1.062,0.028,1.607c0.082,1.227,0.353,2.126,1.743,2.126c2.397,0,3.435-3.407,3.435-5.314v-5.505
					h2.451v12.972L739.749,504.736L739.749,504.736z"/>
				<path id="path2389" d="M751.412,505.036c-3.734,0-5.04-2.289-5.04-5.668v-13.436h2.451v7.604h0.056
					c0.598-1.336,1.935-2.072,3.379-2.072c3.788,0,4.414,3.952,4.414,6.923C756.673,501.984,755.446,505.036,751.412,505.036
					L751.412,505.036z M751.576,493.372c-2.07,0-2.752,3.243-2.752,4.851c0,1.772-0.054,4.906,2.453,4.906
					c2.397,0,2.671-3.052,2.671-4.825C753.948,496.779,753.731,493.372,751.576,493.372L751.576,493.372z"/>
				<polygon id="polygon2391" points="760.297,504.736 760.297,485.932 762.753,485.932 762.753,504.736 				"/>
				<path id="path2393" d="M767.381,488.712v-2.781h2.945v2.781H767.381z M767.627,504.736v-12.972h2.453v12.972H767.627z"/>
				<path id="path2395" d="M781.09,495.988c0-1.335-0.381-2.616-1.988-2.616c-2.07,0-2.643,2.316-2.643,3.951
					c0,3.27,1.608,5.805,5.15,5.805c0.736,0,1.39-0.055,2.07-0.273v1.689c-1.171,0.355-2.369,0.491-3.596,0.491
					c-4.36,0-6.349-3.242-6.349-7.249c0-3.597,1.633-6.323,5.531-6.323c2.944,0,4.634,1.581,4.634,4.524H781.09L781.09,495.988z"/>
				<polygon id="polygon2397" points="785.068,504.736 785.068,502.828 791.365,493.672 785.48,493.672 785.48,491.764 
					794.336,491.764 794.336,493.618 788.039,502.828 794.581,502.828 794.581,504.736 				"/>
				<path id="path2399" d="M805.098,504.736v-7.086c0-0.517,0-1.062-0.026-1.608c-0.082-1.199-0.355-2.125-1.746-2.125
					c-2.397,0-3.432,3.406-3.432,5.314v5.504h-2.454v-12.972h2.454v2.78h0.053c0.736-1.854,2.073-3.08,4.115-3.08
					c2.589,0,3.489,2.017,3.489,4.279v8.993L805.098,504.736L805.098,504.736z"/>
				<path id="path2401" d="M813.386,497.296c0,2.916,1.5,5.833,4.769,5.833c0.874,0,1.664-0.164,2.454-0.463v1.935
					c-1.092,0.245-2.127,0.436-3.244,0.436c-4.634,0-6.431-3.161-6.431-7.413c0-3.542,1.554-6.159,5.286-6.159
					c3.162,0,4.688,2.235,4.688,5.205v0.627H813.386L813.386,497.296z M818.456,495.661c0-1.39-1.01-2.289-2.372-2.289
					c-1.063,0-1.963,0.518-2.397,1.499c-0.11,0.245-0.192,0.545-0.192,0.79H818.456L818.456,495.661z"/>
				<path id="path2403" d="M827.147,505.854c0,3.488-2.646,4.714-5.751,4.714c-0.246,0-0.463-0.027-0.708-0.054v-1.935
					c0.327,0.055,0.654,0.082,0.979,0.082c2.727,0,3.026-1.553,3.026-3.843v-13.054h2.454V505.854L827.147,505.854z
					 M824.448,488.712v-2.781h2.944v2.781H824.448z"/>
			</g>
		</g>
	</g>
</g>
</svg>
