<?xml version="1.0" encoding="utf-8"?>
<!-- Generator: Adobe Illustrator 19.2.1, SVG Export Plug-In . SVG Version: 6.00 Build 0)  -->
<svg version="1.1" id="Warstwa_1" xmlns="http://www.w3.org/2000/svg" xmlns:xlink="http://www.w3.org/1999/xlink" x="0px" y="0px"
	 viewBox="0 0 202.8 278.3" style="enable-background:new 0 0 202.8 278.3;" xml:space="preserve">
<style type="text/css">
	.st0{fill:none;stroke:#F38B00;stroke-width:6;stroke-linecap:round;stroke-linejoin:round;stroke-miterlimit:10;}
</style>
<path class="st0" d="M110.6,234.9l-95.4,0.2c-6.6,0-12-5.4-12-12L3,114.7c0-6.6,5.4-12,12-12l95.4-0.2c6.6,0,12,5.4,12,12l0.2,108.4
	C122.6,229.5,117.2,234.9,110.6,234.9z"/>
<path class="st0" d="M92,178.6H33.5c-6.6,0-12-5.4-12-12v-64H92c3,0,12,0,12,0s0,8.4,0,12v52C104,173.2,98.6,178.6,92,178.6z"/>
<circle class="st0" cx="29.7" cy="209.3" r="8.2"/>
<circle class="st0" cx="95.8" cy="209.3" r="8.2"/>
<g>
	<line class="st0" x1="29.9" y1="235.1" x2="11.8" y2="273.7"/>
	<line class="st0" x1="96" y1="234.9" x2="114.3" y2="273.5"/>
</g>
<line class="st0" x1="28" y1="246.7" x2="97.5" y2="246.7"/>
<line class="st0" x1="16.6" y1="262.8" x2="108.9" y2="262.8"/>
<path class="st0" d="M109.7,278.3"/>
<path class="st0" d="M15.5,261.3"/>
<g>
	<path class="st0" d="M199.8,48.1c0,24.9-20.2,45.1-45.1,45.1c-10,0-19.3-3.3-26.8-8.8c-11.1-8.2-18.3-21.4-18.3-36.2
		c0-24.9,20.2-45.1,45.1-45.1c10.5,0,20.1,3.6,27.8,9.6C193,20.8,199.8,33.7,199.8,48.1z"/>
	<path class="st0" d="M174,63.2c-15.3,19.6-36.4,28.7-47.1,20.4c-4.3-3.4-6.3-9.1-6-16c0.3-10.2,5.4-23,14.5-34.7
		c15.3-19.6,36.4-28.7,47.1-20.4c4.5,3.5,6.4,9.6,6,16.9C187.9,39.5,182.9,51.8,174,63.2z"/>
	<path class="st0" d="M199.7,49.8c-10.7-2.2-21-8.7-32.2-17.6c-10.9-8.6-21-17.7-25.8-27.3"/>
	<path class="st0" d="M109.6,46.2c10.9,2.1,22.2,8.7,33.7,17.7c10.9,8.5,20.2,17.6,25,27.1"/>
	<line class="st0" x1="127.9" y1="84.3" x2="182.5" y2="12.6"/>
	<line class="st0" x1="118.5" y1="21.2" x2="190.8" y2="75.1"/>
</g>
</svg>
