<?xml version="1.0" encoding="utf-8"?>
<!-- Generator: Adobe Illustrator 19.2.1, SVG Export Plug-In . SVG Version: 6.00 Build 0)  -->
<svg version="1.1" id="Warstwa_1" xmlns="http://www.w3.org/2000/svg" xmlns:xlink="http://www.w3.org/1999/xlink" x="0px" y="0px"
	 viewBox="0 0 216.2 277.2" style="enable-background:new 0 0 216.2 277.2;" xml:space="preserve">
<style type="text/css">
	.st0{fill:none;stroke:#F38B00;stroke-width:6;stroke-linecap:round;stroke-linejoin:round;stroke-miterlimit:10;}
</style>
<path class="st0" d="M110.4,233.8H15c-6.6,0-12-5.4-12-12V113.4c0-6.6,5.4-12,12-12h95.4c6.6,0,12,5.4,12,12v108.4
	C122.4,228.4,117,233.8,110.4,233.8z"/>
<path class="st0" d="M91.9,177.5H33.4c-6.6,0-12-5.4-12-12v-64h70.5c3,0,12,0,12,0s0,8.4,0,12v52C103.9,172.1,98.5,177.5,91.9,177.5
	z"/>
<circle class="st0" cx="29.7" cy="208.2" r="8.2"/>
<circle class="st0" cx="95.7" cy="208.2" r="8.2"/>
<g>
	<line class="st0" x1="29.7" y1="233.8" x2="11.4" y2="272.5"/>
	<line class="st0" x1="95.7" y1="233.8" x2="113.9" y2="272.5"/>
</g>
<line class="st0" x1="27.9" y1="245.5" x2="97.5" y2="245.5"/>
<line class="st0" x1="16.5" y1="261.6" x2="108.8" y2="261.6"/>
<path class="st0" d="M109.6,277.2"/>
<path class="st0" d="M15.5,260.2"/>
<path class="st0" d="M107.7,18l18-3.9c0.4-0.1,0.7-0.3,0.9-0.7l3.6-6.9c0.2-0.4,0.5-0.6,0.9-0.7l15-2.9c0.8-0.2,1.5,0.4,1.6,1.2
	l0.3,4.4c0,0.7,0.6,1.3,1.3,1.3l48,0.6c0.5,0,0.9,0.2,1.1,0.6l11.1,18c0.1,0.2,0.2,0.5,0.2,0.7v3.9c0,0.7-0.6,1.3-1.3,1.3h-4.9
	c-0.5,0-1,0.3-1.2,0.7l-4.6,8.9c-0.3,0.6-0.1,1.4,0.5,1.7l7.1,4.6c0.4,0.3,0.6,0.7,0.6,1.2l-0.2,9.5c0,0.2,0,0.4,0.1,0.6l7.3,14.9
	c0.2,0.5,0.2,1.1-0.2,1.5L198,94.2c-0.3,0.3-0.5,0.8-0.3,1.3l1.8,6.3c0.3,1-0.6,1.9-1.6,1.7l-8-1.6c-0.6-0.1-1-0.6-1.1-1.2l-0.1-2
	c0-0.7-0.6-1.3-1.3-1.3l-17.2-0.1c-0.3,0-0.6,0.1-0.9,0.3l-2.7,2.3c-0.3,0.2-0.7,0.4-1,0.3l0,0c-0.6-0.1-1.1-0.5-1.2-1.1l-0.2-0.9
	c-0.2-0.8-1-1.3-1.8-1l-6.5,2.5c-0.6,0.2-1.2,0-1.6-0.4l-7.1-9.4c-0.1-0.2-0.3-0.3-0.5-0.4l-8.6-4.5c-0.2-0.1-0.4-0.1-0.6-0.2
	l-11.4-0.4c-0.3,0-0.6-0.1-0.9-0.4l-2.1-2c-0.3-0.3-0.4-0.6-0.4-1v-2.5c0-0.4-0.2-0.8-0.6-1.1l-11.4-8.2c-0.3-0.2-0.5-0.6-0.6-1
	l-3.7-48.9C106.6,18.8,107,18.2,107.7,18z"/>
</svg>
