<?xml version="1.0" encoding="utf-8"?>
<!-- Generator: Adobe Illustrator 21.0.0, SVG Export Plug-In . SVG Version: 6.00 Build 0)  -->
<svg version="1.1" id="Warstwa_1" xmlns="http://www.w3.org/2000/svg" xmlns:xlink="http://www.w3.org/1999/xlink" x="0px" y="0px"
	 viewBox="0 0 75 85" style="enable-background:new 0 0 75 85;" xml:space="preserve">
<style type="text/css">
	.st0{fill:#FFFFFF;}
</style>
<title>call</title>
<path class="st0" d="M74.8,17.1c-0.3-4.8-2.6-9.2-6.2-12.3c-0.6-0.5-1.2-0.9-1.9-1.3c0-0.1-0.1-0.1-0.1-0.1l-6.1-2.9
	C58.3-0.6,55.6,0,54,2L44,14.6c-1.1,1.2-1.6,2.9-1.5,4.5c0.1,1.1,0.6,2,1.4,2.7l6.4,5l0.1,0.1c1.2,1.1,2,2.6,2.1,4.2
	c0.2,4-1.2,7.9-3.8,10.9l-9.3,11.8c-4.4,5.4-11,7.7-14.5,5l-6.5-5.1c-2-1.6-5-0.9-7,1.6L1.3,67.9c-1.6,2-1.6,4.7,0,6.7L5.6,80
	c0.5,0.6,1.1,1.1,1.7,1.6c1.8,1.3,3.8,2.3,5.9,2.8c12.3,3.1,30.8-6.7,45.3-24.9C69.9,45.2,76.2,29,74.8,17.1z M55.5,57.2
	c-15.3,19.2-36.4,29-45.9,21.5c-0.4-0.4-0.8-0.7-1.2-1.1l-4.2-5.3c-0.4-0.5-0.4-1.3,0-1.8l10.2-12.6c0.3-0.5,0.9-0.9,1.5-1l6.5,5.2
	c5.3,4.1,14,1.6,19.9-5.7l9.3-11.7c3.2-3.9,4.9-8.8,4.6-13.8c-0.3-2.6-1.5-5-3.5-6.7l-0.1-0.1L46.2,19c-0.1-0.6,0.2-1.2,0.6-1.7
	L57,4.7c0.4-0.5,1.2-0.7,1.8-0.4l6.1,2.9c0.5,0.2,1,0.6,1.4,0.9c2.8,2.4,4.5,5.9,4.7,9.6C72.2,28.6,66.3,43.7,55.5,57.2z"/>
</svg>
