<?xml version="1.0" encoding="utf-8"?>
<!-- Generator: Adobe Illustrator 19.2.1, SVG Export Plug-In . SVG Version: 6.00 Build 0)  -->
<svg version="1.1" id="Warstwa_1" xmlns="http://www.w3.org/2000/svg" xmlns:xlink="http://www.w3.org/1999/xlink" x="0px" y="0px"
	 viewBox="0 0 415.6 129.2" style="enable-background:new 0 0 415.6 129.2;" xml:space="preserve">
<style type="text/css">
	.st0{fill:#5D6770;}
	.st1{fill:#DA2128;}
</style>
<path class="st0" d="M153.6,61.9H139v-6.6h5.6c2.2,0,4.3-1.1,5.6-2.9l3-4.2H139v-6.6h10.5c2.2,0,4.4-1.1,5.7-2.9l3-4.2l-26.7,0v34.6
	h24.2v-5.1C155.6,62.8,154.7,61.9,153.6,61.9"/>
<path class="st0" d="M234.6,51.8c0,6.1-4.3,10.5-10.1,10.5c-5.8,0-10.1-4.4-10.1-10.5s4.2-10.5,10.1-10.5
	C230.4,41.2,234.6,45.7,234.6,51.8 M224.5,34.1c-9.7,0-17.6,7.9-17.6,17.6s7.9,17.6,17.6,17.6c9.7,0,17.6-7.9,17.6-17.6
	S234.2,34.1,224.5,34.1"/>
<path class="st1" d="M59.3,51.7c0,6.1-4.3,10.5-10.2,10.5c-5.9,0-10.1-4.4-10.1-10.5c0-6.1,4.3-10.5,10.1-10.5
	C55.1,41.2,59.3,45.6,59.3,51.7 M49.2,34.1c-9.7,0-17.6,7.9-17.6,17.7c0,9.7,7.9,17.7,17.6,17.7c9.7,0,17.7-7.9,17.7-17.7
	C66.8,42,58.9,34.1,49.2,34.1"/>
<path class="st0" d="M194.4,42.6v26.5h7.5V34.5l-5.3,3.7C195.3,39.2,194.4,40.9,194.4,42.6"/>
<path class="st1" d="M92.2,62H79l0-19.4c0-1.7-0.8-3.3-2.2-4.3l-5.3-3.7v34.6h22.7V64C94.2,62.9,93.3,62,92.2,62"/>
<path class="st0" d="M175.1,52.7c0,1.6,1.3,2.9,2.9,2.9h3.4v5.1c-1.6,1.1-3.6,1.7-5.7,1.7c-5.8,0-10.1-4.4-10.1-10.5
	c0-6.1,4.2-10.5,10.1-10.5c2.3,0,4.5,0.6,6.3,1.7c1.4,0.9,3.2,0.7,4.4-0.4l2.7-2.4l-0.3-0.3c-3.4-3.6-8.1-5.7-13-5.7
	c-5,0-9.7,2.1-13,5.8c-3.4,3.8-5,8.6-4.4,13.7c0.8,8,6.7,14.2,14.6,15.5c0.9,0.1,1.9,0.2,2.8,0.2c4.9,0,9.7-2,13.1-5.7l0.1-0.1V49.7
	h-13.8V52.7z"/>
<path class="st1" d="M19.8,47.9c0,5.9-5.9,6.3-7.8,6.3H7.5V41.6H12C15.6,41.6,19.8,43.2,19.8,47.9 M11.5,34.5H0V69h5.5
	c1.1,0,2-0.9,2-2v-5.7h4c9.2,0,15.4-5.4,15.4-13.4C26.9,39.9,20.7,34.5,11.5,34.5"/>
<path class="st0" d="M118.7,47.6c0,5.5-5.1,6.1-7.3,6.1h-5V41.6h5C114.9,41.6,118.7,43.2,118.7,47.6 M123.5,63.9
	c-1.8-2.8-3.2-4.6-4.5-5.6c4.4-2,6.8-5.8,6.8-10.7c0-7.9-6.1-13.1-15.1-13.1H98.9v34.6h5.5c1.1,0,2-0.9,2-2v-6.2h3.3
	c3.2,0.1,3.9,0.8,6.4,4.7l1.2,1.9c0.7,1,1.8,1.6,3,1.6h6.5L123.5,63.9z"/>
<path class="st1" d="M348.1,15.3H398c4,0,7.7-1.9,10-5.1L415.6,0h-79.2C341.3,4.3,345.3,9.5,348.1,15.3"/>
<path class="st1" d="M352.6,34.9c0,2.5-0.2,4.9-0.6,7.3h26.1c4,0,7.7-1.9,10-5.1l7.6-10.3h-43.9C352.3,29.5,352.6,32.2,352.6,34.9"
	/>
<path class="st1" d="M337.3,69.1h20.9c4,0,7.7-1.9,10-5.1l7.6-10.3h-27.3C345.8,59.6,342,64.8,337.3,69.1"/>
<path class="st1" d="M295.1,0h-70.6l7.6,10.3c2.4,3.2,6.1,5.1,10,5.1h51.2c9.1,0,23.4,5.2,27.1,22.2c-30.7-13-55.8,14-33.7,46.6
	l33.3,45l4.1-5.6c3.3-4.4,3.3-10.4,0-14.8c0,0-3.9-5.1-23.5-31.6c-22.2-30.1,12.3-34.9,31.2-19.8c2.6-4.9,4.2-11.4,4.2-17.7
	C336.1,17.7,317.1,0,295.1,0"/>
</svg>
