<?xml version="1.0" encoding="utf-8"?>
<!-- Generator: Adobe Illustrator 21.0.0, SVG Export Plug-In . SVG Version: 6.00 Build 0)  -->
<svg version="1.1" id="Warstwa_1" xmlns="http://www.w3.org/2000/svg" xmlns:xlink="http://www.w3.org/1999/xlink" x="0px" y="0px"
	 viewBox="0 0 227.1 175.1" style="enable-background:new 0 0 227.1 175.1;" xml:space="preserve">
<style type="text/css">
	.st0{fill:none;stroke:#E50000;stroke-width:9;stroke-linecap:round;stroke-linejoin:round;stroke-miterlimit:10;}
</style>
<circle class="st0" cx="113.5" cy="158.6" r="12.1"/>
<path class="st0" d="M84.1,158.6H72.5H16.2c-9.6,0-15.2-11-9.4-18.7L104.2,9.2c4.7-6.3,14.1-6.3,18.8,0l97.3,130.6
	c5.8,7.7,0.2,18.7-9.4,18.7h-51.1h-15.6"/>
<path class="st0" d="M102.6,48.2L102.6,48.2c6.3-6,15.6-6,21.9,0l0,0c3.7,3.5,5.5,10.5,4.6,17.4l-0.9,6.6c-1.3,9.5-8,61.3-14.7,61.3
	s-13.4-51.8-14.7-61.3L98,65.5C97,58.7,98.9,51.6,102.6,48.2z"/>
</svg>
