<?xml version="1.0" encoding="utf-8"?>
<!-- Generator: Adobe Illustrator 19.2.1, SVG Export Plug-In . SVG Version: 6.00 Build 0)  -->
<svg version="1.1" id="Warstwa_1" xmlns="http://www.w3.org/2000/svg" xmlns:xlink="http://www.w3.org/1999/xlink" x="0px" y="0px"
	 viewBox="0 0 207.1 238.9" style="enable-background:new 0 0 207.1 238.9;" xml:space="preserve">
<style type="text/css">
	.st0{fill:none;stroke:#F38B00;stroke-width:9;stroke-linecap:round;stroke-linejoin:round;stroke-miterlimit:10;}
</style>
<line class="st0" x1="181.2" y1="234.4" x2="21.8" y2="234.4"/>
<polyline class="st0" points="39.1,133.6 39.1,86.3 101.1,4.6 202.6,4.5 202.6,212.2 "/>
<polyline class="st0" points="4.5,212.3 4.5,135 39.1,135 39.1,212.3 "/>
<path class="st0" d="M39.1,212.3c0,12.2-5.1,22.1-17.3,22.1s-17.3-9.9-17.3-22.1"/>
<path class="st0" d="M202.6,212.3c0,12.2-9.9,22.1-22.1,22.1"/>
<line class="st0" x1="65.9" y1="106.9" x2="175.7" y2="106.9"/>
<line class="st0" x1="65.9" y1="131.1" x2="175.7" y2="131.1"/>
<line class="st0" x1="65.9" y1="155.4" x2="175.7" y2="155.4"/>
<line class="st0" x1="65.9" y1="179.6" x2="175.7" y2="179.6"/>
<line class="st0" x1="65.9" y1="203.8" x2="175.7" y2="203.8"/>
<rect x="127" y="37.6" class="st0" width="48.7" height="48.7"/>
<path class="st0" d="M101.1,4.6"/>
<polyline class="st0" points="39.1,86.3 101.1,86.3 101.1,4.6 "/>
</svg>
