<?xml version="1.0" encoding="utf-8"?>
<!-- Generator: Adobe Illustrator 21.0.0, SVG Export Plug-In . SVG Version: 6.00 Build 0)  -->
<svg version="1.1" id="Warstwa_1" xmlns="http://www.w3.org/2000/svg" xmlns:xlink="http://www.w3.org/1999/xlink" x="0px" y="0px"
	 viewBox="0 0 215.9 211.7" style="enable-background:new 0 0 215.9 211.7;" xml:space="preserve">
<style type="text/css">
	.st0{fill:#FFFFFF;}
	.st1{fill:#FFFFFF;stroke:#FFFFFF;stroke-miterlimit:10;}
	.st2{fill:none;stroke:#F38B00;stroke-width:6;stroke-linecap:round;stroke-linejoin:round;stroke-miterlimit:10;}
	.st3{fill:none;stroke:#FFFFFF;stroke-width:6;stroke-linecap:round;stroke-linejoin:round;stroke-miterlimit:10;}
</style>
<g>
	<circle class="st0" cx="153" cy="159.8" r="7.1"/>
	<circle class="st0" cx="182" cy="132.7" r="7.1"/>
	<circle class="st0" cx="122.4" cy="132.7" r="5.9"/>
	<circle class="st0" cx="114.1" cy="162.4" r="4.5"/>
	<circle class="st0" cx="164.8" cy="105.5" r="10.1"/>
	<circle class="st0" cx="145.9" cy="136.5" r="3.9"/>
	<circle class="st0" cx="128" cy="180.5" r="3.9"/>
	<circle class="st0" cx="197" cy="171.6" r="3.9"/>
	<circle class="st0" cx="192.4" cy="191.4" r="4.6"/>
	<g>
		<path class="st1" d="M142.9,3.7l-11.3,15.2l-1-0.7c-7.1-5.3-17.1-3.8-22.4,3.2L9,154.1c-5.3,7.1-3.8,17.1,3.2,22.4l1,0.7
			L1.8,192.3c-3,4-2.2,9.7,1.8,12.8l6.4,4.8c4,3,9.7,2.2,12.8-1.8l11.3-15.2l1,0.7c7.1,5.3,17.1,3.8,22.4-3.2l99.2-132.7
			c5.3-7.1,3.8-17.1-3.2-22.4l-1-0.7l11.3-15.2c3-4,2.2-9.7-1.8-12.8l-6.4-4.8C151.6-1.2,145.9-0.4,142.9,3.7z M29.7,189.5
			l-11.3,15.2c-1.2,1.6-3.4,1.9-5,0.7L7,200.7c-1.6-1.2-1.9-3.4-0.7-5l11.3-15.2L29.7,189.5L29.7,189.5z M130.5,24.9L147,37.3
			l3.2,2.4c4.6,3.5,5.6,10,2.1,14.7L53.1,187c-3.5,4.6-10,5.6-14.7,2.1l-3.2-2.4l-16.5-12.4l-3.2-2.4c-4.6-3.5-5.6-10-2.1-14.7
			l99.2-132.7c3.5-4.6,10-5.6,14.7-2.1L130.5,24.9L130.5,24.9z M158.7,11c1.6,1.2,1.9,3.4,0.7,5l-11.3,15.2L136,22.1L147.3,7
			c1.2-1.6,3.4-1.9,5-0.7L158.7,11L158.7,11z"/>
		<path class="st0" d="M141.5,48.6l-31.3,41.8c-0.9,1.2-0.7,2.9,0.6,3.9c1.2,0.9,2.9,0.7,3.9-0.6L146,51.9c0.9-1.2,0.7-2.9-0.6-3.9
			C144.2,47.1,142.4,47.3,141.5,48.6z"/>
		<path class="st0" d="M100.8,103l-56.3,75.3c-0.9,1.2-0.7,2.9,0.6,3.9c1.2,0.9,2.9,0.7,3.9-0.6l56.3-75.3c0.9-1.2,0.7-2.9-0.6-3.9
			C103.5,101.5,101.8,101.8,100.8,103z"/>
	</g>
	<g>
		<path class="st2" d="M191.3,190.7C191.2,190.7,191.2,190.7,191.3,190.7c0,0.2,0,0.3,0,0.5c0.2-0.2,0.4-0.3,0.6-0.5
			C191.6,190.7,191.5,190.7,191.3,190.7z"/>
		<path class="st3" d="M92.4,162.7c2.9,9.1,7.8,17.3,14.2,24.1c11.2,11.8,27.1,19.1,44.6,19.1c5.7,0,11.2-0.8,16.5-2.2
			c-3.6-2.7-6-7-6-11.9c0-7.3,5.2-13.3,12.2-14.5c-0.4-1.5-0.6-3-0.6-4.6c0-9.9,8.1-18,18-18c2.1,0,4,0.4,5.9,1
			c1.1-7.1,7.2-12.6,14.6-12.6c0.4,0,0.8,0,1.1,0.1c-0.4-23-13.5-43-32.5-53.2c-5.1-2.7-10.6-4.7-16.4-6c-4.1-0.9-8.4-1.3-12.7-1.3"
			/>
	</g>
</g>
</svg>
