<?xml version="1.0" encoding="utf-8"?>
<!-- Generator: Adobe Illustrator 19.2.1, SVG Export Plug-In . SVG Version: 6.00 Build 0)  -->
<svg version="1.1" id="Warstwa_1" xmlns="http://www.w3.org/2000/svg" xmlns:xlink="http://www.w3.org/1999/xlink" x="0px" y="0px"
	 viewBox="0 0 235.1 262.9" style="enable-background:new 0 0 235.1 262.9;" xml:space="preserve">
<style type="text/css">
	.st0{fill:none;stroke:#F38B00;stroke-width:6;stroke-linecap:round;stroke-linejoin:round;stroke-miterlimit:10;}
</style>
<path class="st0" d="M110.4,221.3H15c-6.6,0-12-5.4-12-12V100.9c0-6.6,5.4-12,12-12h95.4c6.6,0,12,5.4,12,12v108.4
	C122.4,215.9,117,221.3,110.4,221.3z"/>
<path class="st0" d="M91.9,164.9H33.4c-6.6,0-12-5.4-12-12v-64h70.5c3,0,12,0,12,0s0,8.4,0,12v52C103.9,159.5,98.5,164.9,91.9,164.9
	z"/>
<circle class="st0" cx="29.7" cy="195.6" r="8.2"/>
<circle class="st0" cx="95.7" cy="195.6" r="8.2"/>
<g>
	<line class="st0" x1="29.7" y1="221.3" x2="11.4" y2="259.9"/>
	<line class="st0" x1="95.7" y1="221.3" x2="113.9" y2="259.9"/>
</g>
<line class="st0" x1="27.9" y1="233" x2="97.5" y2="233"/>
<line class="st0" x1="16.5" y1="249.1" x2="108.8" y2="249.1"/>
<path class="st0" d="M15.5,247.6"/>
<polyline class="st0" points="80.8,75.4 134.6,3 196.5,113.4 135.9,113.4 "/>
<polyline class="st0" points="172.3,70.2 188.3,48.7 232.1,113.4 211.6,113.4 "/>
<path class="st0" d="M112.7,32.5c0,0,10.6,8.4,19.5,0s18.9-0.1,18.9-0.1"/>
<line class="st0" x1="160.1" y1="48.7" x2="144.5" y2="48.7"/>
<line class="st0" x1="186.1" y1="75.8" x2="175.5" y2="75.8"/>
</svg>
